<svg xmlns="http://www.w3.org/2000/svg" xmlns:xlink="http://www.w3.org/1999/xlink" width="392.099" height="61.69" viewBox="0 0 392.099 61.69">
  <defs>
    <clipPath id="clip-path">
      <path id="Path_16" data-name="Path 16" d="M0-90.116H392.1v-61.69H0Z" transform="translate(0 151.806)" fill="none"/>
    </clipPath>
  </defs>
  <g id="Group_2" data-name="Group 2" transform="translate(0 151.806)">
    <g id="Group_1" data-name="Group 1" transform="translate(0 -151.806)" clip-path="url(#clip-path)">
      <path id="Path_1" data-name="Path 1" d="M6.543-107.659c8.571,0,20.389-14.1,20.389-21.048,0-1.978-.913-3.145-2.688-3.145-2.79,0-6.036,2.384-10.549,6.441a50.628,50.628,0,0,0-6.036,6.391c-2.738,3.7-3.8,6.238-3.8,8.47,0,1.319.406,2.891,2.688,2.891M2.891-117.55l23.584-32.51h3.754L12.882-126.121h.1c4.363-4.361,8.469-7,12.071-7,3.956,0,5.782,1.927,5.782,4.513,0,6.949-15.064,22.215-25.156,22.215-3.551,0-5.68-1.725-5.68-4.463,0-2.08,1.216-4.413,2.89-6.7" transform="translate(0 150.77)"/>
      <path id="Path_2" data-name="Path 2" d="M431.684-25.774l1.165-1.547H404.212l-1.165,1.547Z" transform="translate(-239.259 77.908)"/>
      <path id="Path_3" data-name="Path 3" d="M81.968-82.913c2.84,0,7-2.738,12.223-8.064a84.594,84.594,0,0,0,6.9-8.014l3.195-4.209c-.557-.3-.659-1.065-.862-1.978-.355-1.42-1.724-1.978-3.144-1.978-9.585,0-20.9,14.506-20.9,21.1,0,1.471.507,3.145,2.586,3.145m19.121-25.46c2.485,0,4.615.912,5.427,2.282l1.115-1.471h3.753L100.125-92.6c-2.079,2.789-3.8,5.477-3.8,7.2a2.292,2.292,0,0,0,2.485,2.485c4.361,0,9.332-5.63,17.193-13.034v1.369c-7.709,7.2-12.324,12.933-17.853,12.933-3.4,0-5.224-1.674-5.224-4.108,0-1.117.406-2.13,1.522-3.906h-.1c-4.464,4.667-9.281,8.014-13.188,8.014-3.5,0-5.68-1.826-5.68-4.514,0-6.492,14.607-22.214,25.613-22.214" transform="translate(-44.805 126.023)"/>
      <path id="Path_4" data-name="Path 4" d="M454.519-151.807a2.511,2.511,0,0,0-2.535,2.536,2.511,2.511,0,0,0,2.535,2.536,2.512,2.512,0,0,0,2.536-2.536,2.511,2.511,0,0,0-2.536-2.536" transform="translate(-268.31 151.806)"/>
      <path id="Path_5" data-name="Path 5" d="M362.026-108.648H352.5c-4.547,0-5.762-1.555-9.3-1.555-4.564,0-11.242,5.613-15.908,10.837l-.1-.051,7.05-9.23h-3.753L311.213-83.29h3.753l2.485-3.3A142.674,142.674,0,0,1,328-98.759c4.261-4.413,10.838-9.933,14.946-9.933,3.148,0,3.568,1.154,9.829,1.154l4.735-.1-3.174,4.221-.9,1.191h.006L339.2-83.29h3.752l17.064-22.692,2.025-2.666Z" transform="translate(-184.744 127.11)"/>
      <path id="Path_6" data-name="Path 6" d="M243.677-82.913c2.84,0,7-2.738,12.223-8.064a84.592,84.592,0,0,0,6.9-8.014l3.195-4.209c-.557-.3-.659-1.065-.862-1.978-.355-1.42-1.724-1.978-3.144-1.978-9.585,0-20.9,14.506-20.9,21.1,0,1.471.507,3.145,2.586,3.145m19.121-25.46c2.485,0,4.615.912,5.427,2.282l1.115-1.471h3.753L261.834-92.6c-2.079,2.789-3.8,5.477-3.8,7.2a2.292,2.292,0,0,0,2.485,2.485c4.361,0,9.332-5.63,17.193-13.034v1.369c-7.709,7.2-12.324,12.933-17.853,12.933-3.4,0-5.224-1.674-5.224-4.108,0-1.117.406-2.13,1.521-3.906h-.1c-4.464,4.667-9.281,8.014-13.187,8.014-3.5,0-5.681-1.826-5.681-4.514,0-6.492,14.607-22.214,25.613-22.214" transform="translate(-140.8 126.023)"/>
      <path id="Path_7" data-name="Path 7" d="M183.413-129.468c0-1.267-.661-2.231-2.536-2.231-3.754,0-9.231,4.716-14.1,9.534l-1.47,1.421c9.839-.1,18.107-4.565,18.107-8.724m-13.136,9.333c1.775.506,2.536,2.028,2.536,3.905,0,1.419-.457,3.956-.457,5.477,0,1.725.609,3.094,2.435,3.094a10.409,10.409,0,0,0,5.174-2.13l.608.811c-2.637,1.725-4.767,2.587-7.1,2.587-2.841,0-4.869-1.217-4.869-4.159,0-2.181,1.217-4.716,1.217-7.456,0-.963-.151-1.623-.862-1.978-1.623.2-3.3.253-4.717.3l-.152.2a78.06,78.06,0,0,0-7.4,9.23l-2.284,3.3h-3.752l31.242-43.11h3.754l-19.73,27.083h.1c5.426-5.426,10.854-10.143,16.027-10.143,3.144,0,5.174,1.267,5.174,3.7,0,4.666-9.079,8.165-16.939,9.282" transform="translate(-89.429 150.769)"/>
      <path id="Path_8" data-name="Path 8" d="M516.56-106.833c3.093,0,4.564,1.42,4.564,3.043a2.13,2.13,0,0,1-2.029,2.282c-1.674,0-1.318-1.927-1.573-2.941-.2-.761-.71-1.167-1.977-1.167-7,0-17.3,11.868-17.3,19.577,0,2.993,1.521,4.666,4.464,4.666,5.831,0,13.394-5.64,22.371-14.161v1.37C516.362-86.1,508.85-80.1,501.547-80.1c-4.513,0-7.2-2.181-7.2-5.985,0-7.4,12.527-20.743,22.215-20.743" transform="translate(-293.457 125.109)"/>
      <path id="Path_9" data-name="Path 9" d="M561.442-81.372c2.84,0,7-2.738,12.223-8.064a84.6,84.6,0,0,0,6.9-8.014l3.195-4.209c-.557-.3-.659-1.065-.862-1.978-.355-1.42-1.724-1.978-3.144-1.978-9.585,0-20.9,14.506-20.9,21.1,0,1.471.507,3.145,2.586,3.145m19.121-25.46c2.485,0,4.615.912,5.427,2.282l1.115-1.471h3.753L579.6-91.059c-2.079,2.789-3.8,5.477-3.8,7.2a2.292,2.292,0,0,0,2.485,2.485c4.362,0,9.332-5.63,17.193-13.034v1.369c-7.709,7.2-12.324,12.933-17.853,12.933-3.4,0-5.224-1.674-5.224-4.108,0-1.117.406-2.13,1.521-3.906h-.1c-4.463,4.667-9.281,8.014-13.187,8.014-3.5,0-5.681-1.826-5.681-4.514,0-6.492,14.607-22.214,25.613-22.214" transform="translate(-329.434 125.109)"/>
      <path id="Path_10" data-name="Path 10" d="M628.426-99.175h.1c4.058-4.311,8.318-7.658,12.73-7.658,3.144,0,5.528,1.521,5.528,4.514,0,7.05-14.809,22.215-23.533,22.215-3.144,0-4.564-1.522-4.564-2.993a2.164,2.164,0,0,1,2.029-2.384c1.724,0,1.319,2.029,1.572,2.942a1.617,1.617,0,0,0,1.775,1.217c7.354,0,18.817-14.506,18.817-21.2,0-1.725-.761-3.043-2.739-3.043-2.993,0-7.05,3.145-10.955,7.1a95.421,95.421,0,0,0-9.434,11.158L602.458-63.419H598.7l30.888-42.6h3.753Z" transform="translate(-355.407 125.109)"/>
      <path id="Path_11" data-name="Path 11" d="M810.035-81.372c2.84,0,7-2.738,12.223-8.064a84.6,84.6,0,0,0,6.9-8.014l3.195-4.209c-.558-.3-.659-1.065-.862-1.978-.355-1.42-1.724-1.978-3.144-1.978-9.585,0-20.9,14.506-20.9,21.1,0,1.471.507,3.145,2.586,3.145m19.121-25.46c2.485,0,4.615.912,5.427,2.282l1.115-1.471h3.753l-11.26,14.962c-2.079,2.789-3.8,5.477-3.8,7.2a2.292,2.292,0,0,0,2.485,2.485c4.361,0,9.332-5.63,17.193-13.034v1.369c-7.709,7.2-12.324,12.933-17.853,12.933-3.4,0-5.224-1.674-5.224-4.108,0-1.117.406-2.13,1.521-3.906h-.1c-4.464,4.667-9.281,8.014-13.187,8.014-3.5,0-5.681-1.826-5.681-4.514,0-6.492,14.607-22.214,25.613-22.214" transform="translate(-477.005 125.109)"/>
      <path id="Path_12" data-name="Path 12" d="M909.926-148.52h3.754l-31.293,43.11h-3.753Z" transform="translate(-521.58 149.855)"/>
      <path id="Path_13" data-name="Path 13" d="M773.13-116.343h-6.7v-1.014h7.4l6.239-8.571h3.7l-6.238,8.571H785.2v1.014h-8.368L759.081-92h-3.652Z" transform="translate(-448.443 136.444)"/>
      <path id="Path_14" data-name="Path 14" d="M778.091-147.627a2.511,2.511,0,0,1,2.535-2.536,2.512,2.512,0,0,1,2.536,2.536,2.512,2.512,0,0,1-2.536,2.536,2.512,2.512,0,0,1-2.535-2.536" transform="translate(-461.896 150.831)"/>
      <path id="Path_15" data-name="Path 15" d="M722.584-80.187c-1.776,0-2.84-.913-2.84-2.434,0-1.725,1.167-3.6,3.905-7.253l11.361-14.962h-3.745l-1.147,1.514-9.411,12.434c-3.093,4.108-4.412,6.188-4.412,8.165,0,2.435,2.232,3.8,5.123,3.8,7.3,0,12.122-5.072,20.794-12.883v-1.419c-8.977,8.165-13.8,13.034-19.627,13.034" transform="translate(-425.212 123.923)"/>
    </g>
  </g>
</svg>
